# xmcd
#
# Track frame offsets:
#	150
#	20715
#	32040
#	55440
#	72128
#	91470
#	111345
#	133545
#	154058
#	175396
#	196321
#	226809
#	240224
#
# Disc length: 3320 seconds
#
# Revision: 1
# Processed by: cddbd v1.5.1PL2 Copyright (c) Steve Scherf et al.
# Submitted via: audiograbber 1.83.01
#
DISCID=aa0cf60d
DTITLE=APSOLUTNO ROMANTICNO - Tesko je biti sam
DYEAR=2005
DGENRE=Pop-Folk
TTITLE0=Tesko je biti sam
TTITLE1=Voli me
TTITLE2=Biljana
TTITLE3=Nocas cu da verujem vinu
TTITLE4=Apsolutno romanticno
TTITLE5=Nevesta
TTITLE6=Slazi me
TTITLE7=Sta ce ti zima bez kaputa
TTITLE8=Rodjendan
TTITLE9=Nikad necu te zaboraviti
TTITLE10=Konji se ne zene
TTITLE11=Moja mala nema mane
TTITLE12=Rumba Cumba
EXTD=
EXTT0=
EXTT1=
EXTT2=
EXTT3=
EXTT4=
EXTT5=
EXTT6=
EXTT7=
EXTT8=
EXTT9=
EXTT10=
EXTT11=
EXTT12=
PLAYORDER=
